<svg width="130" height="130" viewBox="0 0 130 130" fill="none" xmlns="http://www.w3.org/2000/svg">
<path d="M65 130C100.899 130 130 100.898 130 65C130 29.1015 100.899 0 65 0C29.1015 0 0 29.1015 0 65C0 100.898 29.1015 130 65 130Z" fill="#84DBFF"/>
<path d="M112.905 48.8266C112.905 49.6455 112.701 50.3621 112.189 51.0786C109.937 49.8503 107.276 49.2361 104.512 49.2361C101.646 49.2361 98.9842 49.7479 96.8346 51.0786C96.4251 50.3621 96.118 49.6455 96.118 48.8266C96.118 45.7558 99.9054 43.1967 104.512 43.1967C109.118 43.1967 112.905 45.7558 112.905 48.8266Z" fill="#F1543F"/>
<path d="M118.945 65.1022C118.945 68.2754 118.433 71.551 117.614 74.7242H91.4092C91.2045 73.8029 90.9998 72.984 90.795 72.0628C93.2517 67.6612 95.9132 60.3935 94.5825 52.614C97.1415 50.2596 100.622 49.236 104.409 49.236C112.496 49.236 118.945 53.6376 118.945 65.1022Z" fill="#FF7058"/>
<path d="M113.827 83.9369C113.827 83.9369 114.543 88.0314 109.834 92.2282L95.0942 85.0629C95.1966 83.9369 95.5037 82.9133 95.9131 81.992C98.1651 86.0865 101.236 88.8503 104.614 88.8503C107.992 88.8503 111.063 85.9841 113.315 81.992C113.519 82.6062 113.724 83.2204 113.827 83.9369Z" fill="#F9B54C"/>
<path d="M124.267 91.7166C122.015 96.8347 119.047 101.543 115.566 105.843L114.747 103.181C115.259 101.646 117.204 93.0473 115.976 87.6221L124.267 91.7166Z" fill="#4CDBC4"/>
<path d="M114.748 103.181L111.472 92.9448L109.834 92.1259C114.543 87.9291 113.827 83.8346 113.827 83.8346C118.433 87.4173 115.362 101.134 114.748 103.181Z" fill="white"/>
<path d="M95.1966 83.9377C95.0942 84.2448 95.0942 84.6543 94.9919 85.0637L94.3777 84.7566C94.5824 84.4496 94.8895 84.1425 95.1966 83.9377Z" fill="white"/>
<path d="M118.433 75.9526C117.511 77.7951 115.976 78.614 114.952 77.9998C112.598 84.0392 108.811 88.7479 104.409 88.7479C100.007 88.7479 96.22 84.0392 93.8657 77.9998C92.8421 78.614 91.3066 77.6927 90.3854 75.9526C89.9759 75.1337 89.7712 74.3148 89.6688 73.5983C90.1806 72.8817 90.6924 71.9605 91.2043 70.9368C91.409 70.9368 91.6137 70.9368 91.9208 71.0392L92.0232 71.1416C92.0232 71.0392 91.6137 67.2518 101.645 63.1573C105.228 61.7243 107.48 60.0865 108.811 58.551C109.322 60.803 110.551 63.9762 113.826 65.2046C113.826 65.2046 116.897 65.9211 116.59 71.0392C117.102 70.8345 117.614 70.8345 118.023 71.1416C119.354 71.9605 119.456 74.1101 118.433 75.9526Z" fill="#FFD05B"/>
<path d="M87.7246 101.134C87.5199 102.567 87.2128 104.102 87.0081 105.74L83.4254 94.8898C85.1656 96.3228 86.8034 98.2677 87.7246 101.134Z" fill="#E6E9EE"/>
<path d="M86.7011 77.7951C86.7011 77.7951 87.9295 84.551 78.1027 90.3856L66.9452 84.9604C63.9767 81.0707 64.5909 77.7951 64.5909 77.7951C64.5909 77.7951 64.5909 77.7951 64.4885 77.7951C64.4885 77.6927 64.4885 77.5903 64.5909 77.3856C67.6618 81.173 71.4492 83.6297 75.646 83.6297C79.8429 83.6297 83.6303 81.173 86.7011 77.3856C86.7011 77.5903 86.8035 77.6927 86.7011 77.7951C86.8035 77.7951 86.8035 77.7951 86.7011 77.7951Z" fill="#F9B54C"/>
<path d="M115.567 105.842C109.425 113.417 101.646 119.559 92.7404 123.756L86.9058 105.74C87.2128 104.205 87.4176 102.669 87.6223 101.134C87.7247 101.339 90.8979 89.4645 89.1577 82.2992L111.268 92.9449L115.567 105.842Z" fill="#2B3B4E"/>
<path d="M87.7238 101.135C86.8025 98.2684 85.1647 96.2211 83.4246 94.8904L82.708 92.6385L78.2041 90.4889C88.0309 84.6542 86.8025 77.8983 86.8025 77.8983C92.8419 82.4023 87.8261 101.442 87.7238 101.135Z" fill="white"/>
<path d="M66.9445 84.9606L62.0311 82.6063C62.4406 80.5591 63.2595 78.8189 64.5902 77.7953C64.5902 77.7953 63.976 81.0709 66.9445 84.9606Z" fill="white"/>
<path d="M89.7719 68.8897C88.3388 73.3936 87.7246 75.8503 87.7246 76.1574C84.4491 80.559 80.2522 83.6299 75.7483 83.6299C71.4491 83.6299 67.4569 80.9684 64.2837 76.9763C64.2837 76.9763 64.3861 76.9763 64.3861 77.0787C61.3152 73.2913 60.5987 67.9685 60.701 63.3622C61.827 60.7007 62.6459 57.5275 63.1577 54.1496C67.2522 57.2204 76.6695 57.4251 76.6695 57.4251C71.8585 56.6062 71.142 52.8188 71.142 52.8188C71.9609 55.1732 82.6065 56.6062 82.6065 56.6062C93.4569 58.1417 89.7719 68.8897 89.7719 68.8897Z" fill="#FFD05B"/>
<path d="M64.2831 77.0785C64.2831 77.0785 60.7004 74.2124 57.7319 69.1966C58.6532 67.6612 59.6768 65.614 60.5981 63.362C60.4957 67.9683 61.2122 73.2911 64.2831 77.0785Z" fill="#2B3B4E"/>
<path d="M87.7242 76.2597C87.7242 76.2597 88.236 73.7006 89.7714 68.9919C89.7714 68.9919 93.4565 58.2439 82.4014 56.6061C82.4014 56.6061 71.7557 55.173 70.9368 52.8187C70.9368 52.8187 71.7557 56.7085 76.4644 57.425C76.4644 57.425 67.047 57.2203 62.9525 54.1494C63.5667 49.0313 63.1573 43.4014 60.4958 37.7715C62.6455 36.6455 65.4092 36.236 69.1966 37.2597C69.1966 37.2597 84.1415 31.3227 91.8187 44.8345C100.008 59.2675 89.7714 74.9289 87.7242 76.2597Z" fill="#2B3B4E"/>
<path d="M85.5752 61.2127H80.3547H79.8429H71.5516H71.2445H65.7169C64.0791 61.2127 62.7484 62.5434 62.7484 64.1812V66.6379C62.7484 68.2757 64.0791 69.6064 65.7169 69.6064H71.4492C72.1657 69.6064 72.8823 69.2993 73.3941 68.8899C73.5988 68.7875 73.7012 68.6851 73.8035 68.4804C74.213 67.5592 74.9295 67.0474 75.6461 67.0474C76.3626 67.0474 77.0791 67.5592 77.4886 68.4804C77.5909 68.6851 77.6933 68.7875 77.898 68.8899C78.4098 69.4017 79.1264 69.6064 79.8429 69.6064H85.5752C87.213 69.6064 88.5437 68.2757 88.5437 66.6379V64.1812C88.5437 62.5434 87.213 61.2127 85.5752 61.2127ZM65.7169 68.1733C64.898 68.1733 64.1815 67.4568 64.1815 66.6379V64.1812C64.1815 63.3623 64.898 62.6458 65.7169 62.6458H71.2445H71.5516C72.3705 62.6458 73.087 63.3623 73.087 64.1812V66.6379C73.087 66.8426 73.087 67.0473 72.9846 67.2521C72.8823 67.3544 72.8823 67.4568 72.7799 67.5592C72.4728 67.9686 72.0634 68.1733 71.5516 68.1733H65.7169ZM75.6461 65.5119C75.2366 65.5119 74.8272 65.6143 74.4177 65.819V64.0788C74.4177 63.4647 74.213 62.9529 74.0083 62.5434H77.3862C77.0791 62.9529 76.9768 63.567 76.9768 64.0788V65.819C76.4649 65.6143 76.0555 65.5119 75.6461 65.5119ZM87.1106 66.6379C87.1106 67.4568 86.3941 68.1733 85.5752 68.1733H79.8429C79.3311 68.1733 78.9216 67.9686 78.6146 67.5592C78.5122 67.4568 78.5122 67.3544 78.4098 67.2521C78.3075 67.0473 78.3075 66.8426 78.3075 66.6379V64.1812C78.3075 63.3623 79.024 62.6458 79.8429 62.6458H80.3547H85.5752C86.3941 62.6458 87.1106 63.3623 87.1106 64.1812V66.6379Z" fill="#324A5E"/>
<path d="M19.8582 111.677C19.9605 111.882 20.1652 111.984 20.2676 112.087C20.1652 111.984 19.9605 111.882 19.8582 111.677Z" fill="#E6E9EE"/>
<path d="M40.9453 91C40.843 91 40.7406 91.1031 40.6383 91.1031C40.5359 91.1031 40.4335 91 40.3312 91H40.9453Z" fill="#E6E9EE"/>
<path d="M54.7633 102.261C53.6373 109.733 51.7948 118.434 48.7239 127.954C42.0704 126.213 35.724 123.45 30.094 119.867C28.3539 113.52 27.2279 107.583 26.5114 102.261C29.7869 92.0244 40.6373 91.1031 40.6373 91.1031C40.6373 91.1031 51.5901 92.0244 54.7633 102.261Z" fill="#E6E9EE"/>
<path d="M53.6375 74.7244C53.6375 74.7244 55.2753 83.937 40.6375 91.1023H40.5351C25.8973 83.937 27.5351 74.7244 27.5351 74.7244C27.5351 74.7244 27.5351 74.7244 27.4327 74.7244C27.4327 74.622 27.5351 74.4173 27.5351 74.3149C31.1178 78.7165 35.6217 81.5827 40.5351 81.5827C45.4485 81.5827 49.8501 78.7165 53.5351 74.3149C53.6375 74.5197 53.7398 74.622 53.6375 74.7244C53.7398 74.8268 53.7398 74.7244 53.6375 74.7244Z" fill="#F9B54C"/>
<path d="M45.8582 92.5353L44.1181 97.5511H37.2598L35.5197 92.5353C38.3858 91.307 40.6378 91.1022 40.6378 91.1022C40.6378 91.1022 42.9921 91.307 45.8582 92.5353Z" fill="#54C0EB"/>
<path d="M48.4173 127.85L44.1181 97.5512H37.2599L33.7795 122.016C38.2835 124.472 43.1969 126.52 48.4173 127.85Z" fill="#84DBFF"/>
<path d="M30.0941 119.866C18.8343 112.701 9.92878 102.157 4.81067 89.6693L24.6689 80.1496C22.6217 88.748 26.4091 102.669 26.5115 102.362C27.228 107.583 28.4563 113.417 30.0941 119.866Z" fill="#324A5E"/>
<path d="M53.6377 74.7244C53.6377 74.7244 55.2755 83.937 40.6377 91.1023C40.6377 91.1023 51.5905 91.9212 54.7637 102.26C54.9684 102.567 60.9054 80.2519 53.6377 74.7244Z" fill="white"/>
<path d="M27.6378 74.7244C20.4725 80.1496 26.4095 102.567 26.5118 102.157C29.7874 91.9212 40.6378 91 40.6378 91C26 84.0393 27.6378 74.7244 27.6378 74.7244Z" fill="white"/>
<path d="M57.2203 64.2834C55.3778 69.9134 54.7636 72.8819 54.7636 72.8819C50.9762 78.1023 46.0628 81.5826 40.6376 81.5826C35.5195 81.5826 30.9132 78.4094 27.1258 73.7008L27.2281 73.8031C19.2439 63.9764 24.7714 45.8583 24.7714 45.8583C28.7636 50.3622 41.6612 50.6693 41.6612 50.6693C36.0313 49.748 35.11 45.2441 35.11 45.2441C36.0313 48.0079 48.5195 49.6457 48.5195 49.6457C61.5195 51.6929 57.2203 64.2834 57.2203 64.2834Z" fill="#FFD05B"/>
<path d="M33.1647 27.0236C33.1647 27.0236 50.771 19.9606 59.6765 35.9291C69.2986 52.9212 57.2198 71.4488 54.7631 72.8819C54.7631 72.8819 55.3773 69.9134 57.2198 64.2834C57.2198 64.2834 61.5191 51.6929 48.6214 49.748C48.6214 49.748 36.0309 48.1102 35.212 45.3464C35.212 45.3464 36.1332 49.8504 41.7631 50.7716C41.7631 50.7716 28.8655 50.4646 24.8734 45.9606C24.8734 45.9606 19.3458 64.0787 27.4324 73.9055C27.4324 73.9055 13.6135 62.8504 15.2513 45.7559C15.149 45.7559 14.4324 22.315 33.1647 27.0236Z" fill="#324A5E"/>
<path d="M92.7396 123.756C84.3459 127.748 74.9285 130 64.9994 130C59.3695 130 53.9443 129.283 48.8262 127.953C51.897 118.433 53.7396 109.732 54.8655 102.26C55.0703 102.26 58.6529 88.5431 56.7081 80.0471L82.7081 92.6376L92.7396 123.756Z" fill="#324A5E"/>
</svg>
