<svg width="130" height="130" viewBox="0 0 130 130" fill="none" xmlns="http://www.w3.org/2000/svg">
<path d="M65 130C100.899 130 130 100.899 130 65C130 29.1015 100.899 0 65 0C29.1015 0 0 29.1015 0 65C0 100.899 29.1015 130 65 130Z" fill="#7E6990"/>
<path d="M102 116.996V117H27V116.996C27 114.478 27.7 112.052 29.0009 109.795C29.234 109.387 29.4884 108.983 29.7642 108.584V108.58C30.033 108.18 30.3294 107.789 30.6408 107.403C31.8778 105.852 33.4194 104.401 35.2079 103.073C35.6603 102.741 36.1203 102.417 36.5934 102.106C36.8265 101.946 37.074 101.791 37.3216 101.635C37.5691 101.484 37.8166 101.332 38.0711 101.181C39.3362 100.428 40.6936 99.739 42.1217 99.1044C42.8361 98.7892 43.5567 98.4948 44.3062 98.209C44.5751 98.108 44.8432 98.007 45.119 97.9105C45.2393 97.8684 45.3665 97.8263 45.4868 97.7841C45.8547 97.6537 46.2219 97.5278 46.5966 97.4059C46.611 97.3973 46.6248 97.3973 46.6248 97.3973C46.9287 97.3004 47.2258 97.1953 47.5228 97.0862C48.4064 96.7709 49.2549 96.4217 50.0607 96.0353C52.6551 94.8079 54.8045 93.2607 56.3454 91.4992C56.8336 90.9403 57.2647 90.36 57.625 89.7631C58.523 88.2747 59.0112 86.6731 59.0112 85L64.4756 85.0168H64.49L70.096 85.0339C70.096 86.6858 70.5698 88.2711 71.4458 89.7422C71.7992 90.3437 72.2235 90.9235 72.711 91.4828C74.245 93.2525 76.3876 94.8079 78.9819 96.0398C79.4907 96.2876 80.0071 96.515 80.5517 96.7292C80.6081 96.7546 80.6576 96.7754 80.714 96.7967C80.9684 96.8977 81.2228 96.9987 81.4916 97.0911C81.7818 97.1962 82.0788 97.3012 82.3752 97.3977C82.4247 97.4063 82.4673 97.4186 82.5024 97.4354C82.8345 97.5449 83.1673 97.6582 83.4919 97.776C83.7752 97.8725 84.0578 97.9734 84.3404 98.0785C84.6298 98.1836 84.92 98.2928 85.2026 98.4146C85.7891 98.6375 86.3619 98.8816 86.9202 99.1335C86.9202 99.1375 86.9271 99.1375 86.9271 99.1375H86.9347C87.6484 99.4528 88.3415 99.7893 89.0202 100.134C89.6988 100.478 90.3493 100.84 90.9785 101.214C97.7933 105.25 102 110.825 102 116.996Z" fill="#ECC19C"/>
<path d="M102 117H27C27 114.358 27.7 111.813 29.0009 109.444C29.234 109.017 29.4884 108.593 29.7642 108.174V108.17C30.033 107.751 30.3294 107.341 30.6408 106.935C31.8778 105.308 33.4194 103.786 35.2079 102.392C35.6603 102.043 36.1203 101.704 36.5934 101.378C36.8265 101.21 37.074 101.047 37.3216 100.883C37.5691 100.725 37.8166 100.566 38.0711 100.407C39.3362 99.6173 40.6936 98.894 42.1217 98.2282C42.8361 97.8975 43.5567 97.5886 44.3062 97.2887C44.5751 97.1828 44.8432 97.0768 45.119 96.9755C45.2393 96.9271 45.3596 96.8829 45.4793 96.8387C45.8471 96.7018 46.2219 96.5697 46.5966 96.4419C46.611 96.4329 46.6248 96.4376 46.6248 96.4376V96.4333C46.9287 96.3273 47.2258 96.2214 47.5228 96.1115C48.4064 95.7761 49.2549 95.4058 50.0463 95C50.0532 95.0043 50.0532 95.0043 50.0607 95.0086C53.7229 97.3462 58.8201 98.7975 64.4756 98.8061H64.532C70.1875 98.8061 75.306 97.3505 78.9819 95.0129L78.9888 95.0086C79.4907 95.269 80.014 95.5114 80.551 95.7362C80.6074 95.7628 80.6569 95.7846 80.7133 95.8069C80.9677 95.9129 81.229 96.0142 81.4909 96.1158C81.7811 96.2261 82.0782 96.332 82.3745 96.4333C82.424 96.4423 82.4591 96.4599 82.5017 96.4728C82.8338 96.5877 83.1735 96.7066 83.4987 96.8301C83.7813 96.9361 84.0646 97.042 84.3404 97.1523C84.6298 97.2625 84.92 97.3771 85.2026 97.5049C85.7891 97.7387 86.3619 97.9949 86.9202 98.2591H86.9347C87.6484 98.5942 88.3484 98.9429 89.0202 99.3089C89.6988 99.6705 90.3493 100.05 90.9785 100.443C97.7933 104.677 102 110.525 102 117Z" fill="#1C5A7D"/>
<path d="M84 97.0603L83.9929 97.0651L83.2023 97.6163C78.2276 101.088 71.5847 103 64.4997 103C64.4926 103 64.4926 103 64.4848 103C57.3349 102.985 50.7139 101.073 45.7611 97.6066L45.0071 97.0752L45 97.0704C45.3774 96.9163 45.7618 96.7675 46.1462 96.6236C46.161 96.6134 46.1751 96.6187 46.1751 96.6187V96.6139C46.4868 96.4946 46.7915 96.3753 47.0963 96.2516C48.0026 95.8739 48.873 95.457 49.6848 95C49.6919 95.0048 49.6919 95.0048 49.6996 95.0097C53.4562 97.6419 58.6849 99.2761 64.4862 99.2857H64.5441C70.3455 99.2857 75.596 97.6467 79.3667 95.0145L79.3737 95.0097C79.8886 95.3029 80.4254 95.5758 80.9762 95.8289C81.0341 95.8589 81.0849 95.8835 81.1427 95.9086C81.4037 96.028 81.6717 96.142 81.9404 96.2564C82.2381 96.3806 82.5428 96.4999 82.8468 96.6139C82.8976 96.6241 82.9335 96.6439 82.9773 96.6584C83.3186 96.7868 83.6671 96.9211 84 97.0603Z" fill="#7CA6BA"/>
<path d="M93 44.7405V61.9732C93 62.2836 92.9932 62.5946 92.9864 62.905C92.9796 63.1447 92.9721 63.385 92.9585 63.6246C92.9517 63.865 92.9374 64.0978 92.9163 64.3374C92.9095 64.4995 92.8952 64.6622 92.8815 64.8249C92.8747 64.9238 92.8679 65.0151 92.8536 65.114C92.84 65.2905 92.8257 65.4738 92.7978 65.6503C92.7835 65.8199 92.7699 65.9895 92.742 66.1585C92.7277 66.3212 92.7073 66.4901 92.6787 66.6597C92.616 67.1679 92.5316 67.676 92.4404 68.1773C92.3777 68.5165 92.3144 68.855 92.2443 69.1873C92.2375 69.2018 92.2375 69.2155 92.2307 69.2299C92.2239 69.2794 92.2164 69.3288 92.2028 69.3782C92.196 69.3927 92.196 69.4064 92.1885 69.4208C92.1885 69.4352 92.1885 69.449 92.1817 69.4634C92.1674 69.5341 92.1537 69.6048 92.1326 69.6749C92.119 69.7593 92.0979 69.8445 92.0768 69.929C92.0632 70.021 92.0414 70.1054 92.0135 70.1906C91.9924 70.3176 91.9577 70.4446 91.9291 70.5717C91.908 70.6424 91.8944 70.72 91.8664 70.7907C91.8521 70.8546 91.8317 70.9178 91.8174 70.9748C91.6704 71.5536 91.5022 72.1181 91.3272 72.6832C91.2435 72.9517 91.1591 73.2126 91.0685 73.4811C91.061 73.5092 91.0474 73.5374 91.0399 73.5656C90.9562 73.8059 90.8718 74.0455 90.788 74.2859C90.7601 74.3566 90.7322 74.4266 90.7043 74.5049C90.6199 74.7308 90.5361 74.9567 90.4456 75.1827C90.3407 75.458 90.2284 75.7265 90.1167 75.995C90.0187 76.2353 89.9139 76.475 89.8083 76.7146C89.7947 76.7572 89.7736 76.7922 89.7593 76.8348C89.6402 77.0889 89.5285 77.3429 89.4094 77.5901C89.2902 77.8511 89.1643 78.1127 89.0315 78.3743C88.7796 78.8893 88.5066 79.405 88.2336 79.9063L87.8558 80.584C86.7773 82.4552 85.5805 84.2131 84.2787 85.8363C84.1038 86.0691 83.922 86.295 83.7327 86.5141C83.4733 86.832 83.2078 87.1424 82.9416 87.4459C82.7033 87.7144 82.4657 87.9822 82.2206 88.2438C81.5487 88.971 80.8624 89.6631 80.1625 90.3127C80.0223 90.4542 79.8759 90.5812 79.7282 90.7151C79.4899 90.9342 79.2523 91.1457 79.0072 91.3503C78.8179 91.5199 78.6225 91.682 78.4258 91.8447C77.922 92.2608 77.4182 92.6632 76.9069 93.0374C76.6965 93.2002 76.48 93.3554 76.2628 93.5037C75.9129 93.7578 75.5554 93.9981 75.1987 94.2309C75.0026 94.3648 74.7997 94.4918 74.5968 94.612C73.946 95.0212 73.2808 95.3955 72.63 95.7271C72.5673 95.7621 72.5115 95.7903 72.4482 95.8185C72.2732 95.9105 72.0983 95.9949 71.9233 96.0801C71.7483 96.1645 71.5665 96.2497 71.3773 96.3341C71.1465 96.4399 70.9157 96.5388 70.6842 96.6308C70.593 96.6727 70.5017 96.7084 70.4112 96.7365C70.1382 96.8491 69.8577 96.9556 69.5854 97.0469C69.2422 97.1739 68.8923 97.2797 68.5498 97.3786C68.3116 97.4493 68.0671 97.5125 67.8289 97.5688C67.8146 97.5763 67.8009 97.5832 67.7798 97.5832C67.5415 97.6395 67.3039 97.6958 67.0657 97.7384C67.0023 97.7528 66.9397 97.7665 66.8764 97.7734C66.6803 97.8084 66.4842 97.8441 66.2882 97.8654C66.0084 97.9073 65.7285 97.943 65.4487 97.9574C65.3507 97.9718 65.2595 97.9787 65.1621 97.9787C64.9381 97.9924 64.7141 98 64.4969 98H64.4758C64.2586 98 64.0421 97.9931 63.825 97.9787C63.7405 97.9787 63.6568 97.9718 63.5731 97.9574C63.377 97.9499 63.1741 97.9293 62.9637 97.9011C62.9215 97.9011 62.8725 97.8942 62.831 97.8867C62.5723 97.8517 62.3129 97.8091 62.0467 97.7597C61.8227 97.7246 61.5987 97.6752 61.3679 97.6189C60.171 97.3435 58.9394 96.9267 57.6929 96.3692C57.2728 96.1783 56.8459 95.9812 56.4259 95.7546C55.775 95.4298 55.1241 95.0624 54.4801 94.66C53.9409 94.3284 53.4017 93.9754 52.87 93.6012C52.6038 93.4103 52.3382 93.2201 52.072 93.0223C51.2394 92.4078 50.4129 91.7376 49.6014 91.0173C49.3774 90.8126 49.1534 90.608 48.9294 90.3958C48.7054 90.1912 48.4814 89.9797 48.2642 89.7744C47.7182 89.245 47.1865 88.6943 46.6684 88.1223C46.4655 87.9032 46.2626 87.678 46.0591 87.4445C45.4994 86.8093 44.9527 86.1529 44.4353 85.4676C44.2324 85.2204 44.0432 84.9663 43.8546 84.7123C43.1479 83.7667 42.4759 82.7779 41.8455 81.7541C41.6773 81.4787 41.5098 81.1958 41.3485 80.9212C41.1524 80.5895 40.9638 80.2503 40.7746 79.9118C40.0747 78.6407 39.4306 77.3209 38.8703 75.9579C38.7866 75.7601 38.7022 75.5624 38.632 75.3653C38.5204 75.1112 38.4223 74.8503 38.3311 74.5956C38.1909 74.2213 38.0581 73.8471 37.9322 73.4729C37.8062 73.0986 37.6871 72.7175 37.5679 72.3364C37.4556 71.969 37.3507 71.6024 37.2527 71.2281C37.141 70.8326 37.0362 70.4302 36.945 70.021C36.9382 69.9784 36.9239 69.9358 36.9171 69.8939C36.7843 69.3295 36.6652 68.7575 36.5603 68.1779C36.4201 67.4157 36.3084 66.6391 36.224 65.8556C36.1893 65.6084 36.1682 65.3612 36.1471 65.114C36.1191 64.8531 36.098 64.5983 36.0844 64.3374C36.0497 63.8643 36.0286 63.3843 36.0143 62.9043C36.0075 62.5933 36 62.2829 36 61.9725V44.7405C36 40.7943 36.7911 37.0313 38.2188 33.6069C38.2535 33.508 38.2957 33.4167 38.3379 33.3247C38.8914 32.033 39.5348 30.7902 40.2701 29.6043C40.3824 29.4141 40.5009 29.2301 40.62 29.0467C45.7016 21.196 54.4869 16.0069 64.4751 16H64.5031C66.6735 16 68.7868 16.2472 70.817 16.7059C72.6722 17.1296 74.4566 17.7366 76.1505 18.5063C78.4605 19.5508 80.6091 20.8925 82.5413 22.4952C84.165 23.8363 85.6424 25.3469 86.9298 27.0135C87.4336 27.6631 87.9095 28.3333 88.3582 29.0254C88.4841 29.2156 88.6101 29.4065 88.7224 29.6043C89.4502 30.7833 90.1011 32.0193 90.6539 33.3109L90.7799 33.6076C92.1796 36.9613 92.9639 40.6322 92.9918 44.4872C93 44.5709 93 44.6554 93 44.7405Z" fill="#ECC19C"/>
<path d="M93 62.0014C93 62.3115 92.9932 62.6223 92.9864 62.9325C92.9796 63.1719 92.9721 63.4121 92.9585 63.6516C92.9517 63.8917 92.9374 64.1243 92.9163 64.3638C92.9095 64.5257 92.8952 64.6883 92.8815 64.8509C92.8747 64.9497 92.8679 65.041 92.8536 65.1398C92.84 65.3161 92.8257 65.4993 92.7978 65.6757C92.7835 65.8452 92.7631 66.0146 92.742 66.1834C92.7277 66.346 92.7072 66.5148 92.6786 66.6843C92.616 67.1921 92.5316 67.6998 92.4404 68.2007C92.3845 68.4971 92.3287 68.7867 92.2654 69.0755C92.2586 69.1393 92.2443 69.1956 92.2307 69.2519C92.2239 69.3013 92.2164 69.3507 92.2028 69.4001C92.1959 69.4145 92.1959 69.4282 92.1885 69.4426C92.1885 69.457 92.1885 69.4708 92.1817 69.4852C92.1817 69.492 92.1817 69.4996 92.1817 69.4996C92.1674 69.5771 92.1469 69.6546 92.1326 69.7253C92.119 69.8028 92.0979 69.8804 92.0768 69.9511C92.0632 70.043 92.0414 70.1274 92.0135 70.2125C91.9856 70.3531 91.9502 70.4876 91.9086 70.6214C91.9018 70.6845 91.8875 70.7484 91.8671 70.8115C91.8528 70.8753 91.8324 70.9384 91.8181 70.9954C91.671 71.5738 91.5029 72.1378 91.3279 72.7025C91.2441 72.9708 91.1597 73.2315 91.0692 73.4998C91.0617 73.5279 91.0481 73.5561 91.0406 73.5842C90.9568 73.8243 90.8724 74.0638 90.7887 74.304C90.7608 74.3746 90.7329 74.4446 90.7049 74.5228C90.6205 74.7486 90.5368 74.9743 90.4462 75.2001C90.3414 75.4752 90.229 75.7435 90.1174 76.0118C90.0193 76.2519 89.9145 76.4914 89.809 76.7309C89.7954 76.7734 89.7743 76.8084 89.76 76.8509C89.6408 77.1048 89.5292 77.3587 89.41 77.6057C89.2909 77.8664 89.1649 78.1278 89.0322 78.3893C88.7802 78.9039 88.5072 79.4192 88.2342 79.9201L87.8564 80.5973C86.7779 82.467 85.5811 84.2236 84.2793 85.8456C84.1043 86.0782 83.9226 86.304 83.7333 86.5228C83.4739 86.8405 83.2084 87.1507 82.9422 87.4539C82.7039 87.7222 82.4663 87.9898 82.2212 88.2512C81.5492 88.9779 80.8629 89.6695 80.1631 90.3186C80.0228 90.46 79.8764 90.5869 79.7287 90.7207C79.4904 90.9396 79.2528 91.1509 79.0077 91.3554C78.8184 91.5248 78.623 91.6868 78.4263 91.8494C77.9225 92.2652 77.4186 92.6673 76.9073 93.0412C76.697 93.2038 76.4805 93.3589 76.2633 93.5071C75.9133 93.761 75.5559 94.0011 75.1992 94.2337C75.0031 94.3675 74.8002 94.4945 74.5973 94.6146C73.9464 95.0235 73.2813 95.3975 72.6304 95.7289C72.5678 95.7639 72.5119 95.792 72.4486 95.8201C72.2737 95.9121 72.0987 95.9965 71.9237 96.0815C71.7487 96.1659 71.567 96.251 71.3777 96.3354C71.1469 96.4411 70.9161 96.5399 70.6846 96.6318C70.5934 96.6737 70.5022 96.7094 70.4116 96.7375C70.1386 96.85 69.8581 96.9564 69.5858 97.0476C69.2426 97.1746 68.8927 97.2802 68.5502 97.379C68.3119 97.4497 68.0675 97.5128 67.8292 97.5691C67.8149 97.5766 67.8013 97.5835 67.7802 97.5835C67.5419 97.6398 67.3043 97.696 67.066 97.7386C67.0027 97.753 66.9401 97.7667 66.8768 97.7736C66.6807 97.8086 66.4846 97.8442 66.2885 97.8655C66.0087 97.9074 65.7289 97.9431 65.4491 97.9575C65.351 97.9719 65.2598 97.9787 65.1624 97.9787C64.9385 97.9925 64.7145 98 64.4973 98H64.4762C64.259 98 64.0425 97.9931 63.8253 97.9787C63.7409 97.9787 63.6571 97.9719 63.5734 97.9575C63.3773 97.9499 63.1744 97.9293 62.9641 97.9012C62.9218 97.9012 62.8728 97.8943 62.8313 97.8868C62.5726 97.8518 62.3132 97.8092 62.047 97.7598C61.823 97.7249 61.599 97.6755 61.3682 97.6192C60.1713 97.3441 58.9397 96.9276 57.6931 96.3704C57.273 96.1797 56.8462 95.9827 56.4261 95.7563C55.7752 95.4318 55.1244 95.0647 54.4803 94.6626C53.9411 94.338 53.4094 93.9854 52.8702 93.6045C52.604 93.4138 52.3384 93.2237 52.0722 93.0261C51.2396 92.412 50.4131 91.7423 49.6015 91.0226C49.3775 90.8181 49.1535 90.6136 48.9295 90.4016C48.7056 90.1971 48.4816 89.9858 48.2644 89.7807C47.7184 89.2516 47.1866 88.7014 46.6685 88.1298C46.4656 87.9109 46.2628 87.6859 46.0592 87.4526C45.4995 86.8179 44.9528 86.1619 44.4354 85.4772C44.2325 85.2301 44.0433 84.9763 43.8547 84.7224C43.148 83.7776 42.476 82.7895 41.8456 81.7665C41.6774 81.4913 41.5099 81.2086 41.3486 80.9342C41.1525 80.6028 40.9639 80.2638 40.7746 79.9256C40.0747 78.6555 39.4307 77.3367 38.8704 75.9747C38.7866 75.7771 38.7022 75.5795 38.6321 75.3826C38.5204 75.1287 38.4224 74.868 38.3311 74.6134C38.1909 74.2395 38.0581 73.8655 37.9322 73.4916C37.8062 73.1176 37.6871 72.7368 37.5679 72.356C37.4556 71.9889 37.3508 71.6225 37.2527 71.2486C37.1411 70.8533 37.0362 70.4513 36.945 70.0423C36.9382 69.9998 36.9239 69.9572 36.9171 69.9154C36.7843 69.3514 36.6652 68.7798 36.5603 68.2007C36.4201 67.4391 36.3084 66.663 36.224 65.8802C36.1893 65.6331 36.1682 65.3861 36.1471 65.1391C36.1191 64.8784 36.098 64.6238 36.0844 64.3631C36.0497 63.8903 36.0286 63.4107 36.0143 62.9311C36.0075 62.6203 36 62.3101 36 62L40.55 71.016L48.3685 74.4515L57.6155 75.2913H57.6223L64.4748 75.9191H64.517L70.929 76.5051C70.9358 76.5051 70.9358 76.5051 70.9358 76.5051L85.2366 77.8033L93 62.0014Z" fill="#D4DCE6"/>
<path d="M65 66.1216L64.9931 73.1572V73.1648L64.9862 75.6291V77.5646L64.9792 83.9931V84L64.9723 83.9931H64.9654L64.9585 83.9861L64.9439 83.9792L36.9605 69.6793C36.9536 69.6362 36.9391 69.5932 36.9322 69.5508C36.7972 68.9797 36.6761 68.401 36.5695 67.8146C36.427 67.0435 36.3135 66.2577 36.2277 65.465C36.1924 65.2149 36.1709 64.9648 36.1495 64.7147C36.1211 64.4507 36.0996 64.193 36.0858 63.929C36.0505 63.4503 36.0291 62.9647 36.0145 62.479C36.0076 62.1643 36 61.8503 36 61.5363V53C36 53.1216 36.0069 53.2432 36.0069 53.364C36.0069 53.4495 36.0138 53.5356 36.0215 53.6211C36.092 55.6136 36.4201 57.7923 37.0242 60.021C37.5148 61.8065 38.1273 63.4565 38.8387 64.9287V64.9356C40.703 68.8283 43.1998 71.4711 45.4987 71.8997C45.6406 71.9212 45.7901 71.9351 45.9326 71.9497C46.8219 72.0498 47.754 72.1067 48.7146 72.1067C52.3429 72.1067 55.5663 69.1784 57.5939 67.9925C57.6085 67.9855 57.6223 67.9779 57.6369 67.971C57.7434 67.9063 57.8507 67.8424 57.9427 67.7778C57.9711 67.7563 57.9995 67.7424 58.0279 67.7278C59.7358 66.7489 62.1973 66.1278 64.9439 66.1209H65V66.1216Z" fill="#D4DCE6"/>
<path d="M93 53L92.9933 61.5358C92.9933 63.6784 92.8009 65.7786 92.4441 67.8143C92.2998 68.6285 92.1347 69.4358 91.943 70.2355L85.6021 79.7571L65.0341 83.9931H65.0274L65.0207 84V83.9931L65 66.1184H65.0548C67.7061 66.1253 70.0901 66.7471 71.7384 67.7253C71.7658 67.7399 71.7865 67.7538 71.8139 67.7754C71.9101 67.8393 72.013 67.9039 72.1159 67.9678C72.1226 67.9755 72.1366 67.9824 72.1507 67.9894C74.1151 69.1753 77.22 72.1058 80.7239 72.1058C81.6513 72.1058 82.5513 72.0488 83.4099 71.9488C83.5542 71.9342 83.6912 71.9203 83.8355 71.8987C86.0471 71.4701 88.4659 68.8272 90.2585 64.9345V64.9276C90.9454 63.4561 91.5361 61.806 92.0105 60.0205C92.6285 57.6632 92.9519 55.3629 92.9926 53.2703C93 53.1786 93 53.0931 93 53Z" fill="#D4DCE6"/>
<path d="M65 78C68.866 78 72 76.8807 72 75.5C72 74.1193 68.866 73 65 73C61.134 73 58 74.1193 58 75.5C58 76.8807 61.134 78 65 78Z" fill="#ECC19C"/>
<path d="M90.9412 44.026C90.9412 43.9048 90.8534 43.7981 90.7301 43.7835C89.6886 43.627 84.9979 43 79.9571 43C74.2391 43 66.8604 44.7521 65.571 44.7521H64.4276C63.8303 44.7521 61.9075 44.3745 59.4456 43.9685C56.6196 43.4981 53.0864 43 50.0422 43C46.3496 43 42.8533 43.3422 40.8349 43.5771C40.0917 43.6623 39.5526 43.7406 39.2692 43.7835C39.1452 43.7981 39.0581 43.9048 39.0581 44.026L39 47.0313C39 47.138 39.0652 47.2309 39.1601 47.2738L39.5101 47.3881C40.0273 47.5807 39.9834 56.6403 42.7442 58.9057C44.3829 60.2379 45.8473 61 52.0018 61C55.5639 61 57.8069 60.0599 59.9338 57.2534C61.4633 55.2374 62.8257 50.4724 62.8257 50.4724C63.2189 48.5776 64.6245 48.3643 64.9377 48.3358C64.9447 48.3358 64.9447 48.3358 64.9525 48.3358H64.9745C64.9894 48.3358 64.9965 48.3358 64.9965 48.3358C65.0475 48.3358 66.7379 48.3643 67.1743 50.4724C67.1743 50.4724 68.5367 55.2374 70.0662 57.2534C72.1931 60.0599 74.4361 61 77.9982 61C84.1534 61 85.6171 60.2379 87.2558 58.9057C90.0159 56.6403 89.9727 47.5807 90.4899 47.3881L90.8399 47.2738C90.9348 47.2309 91 47.1387 91 47.0313L90.9412 44.026ZM59.9331 54.7455C59.0227 56.8398 56.6918 59.5389 53.3996 59.7031C43.5299 60.1874 43.0786 57.4952 42.4368 55.3586C41.7956 53.2214 41.6284 51.3481 41.8835 49.2185C42.1385 47.0819 42.6918 45.828 43.683 45.2017C44.1052 44.9239 44.5714 44.6745 45.7588 44.4964C46.8222 44.3468 48.4609 44.2539 51.1927 44.2539C52.7804 44.2539 54.2597 44.3752 55.5852 44.5816C59.0956 45.1372 61.4704 46.3053 61.4704 47.4519C61.4697 48.2423 61.2664 51.6474 59.9331 54.7455ZM87.5611 55.3586C86.9199 57.4952 86.4687 60.1881 76.5983 59.7031C73.3061 59.5396 70.9681 56.8398 70.0648 54.7455C68.7315 51.6474 68.5282 48.2423 68.5282 47.4519C68.5282 45.8709 73.022 44.2539 78.8059 44.2539C84.582 44.2539 85.5073 44.6745 86.3156 45.2017C87.3061 45.8287 87.8601 47.0819 88.1151 49.2185C88.3695 51.3481 88.2023 53.2214 87.5611 55.3586Z" fill="#1A1A1A"/>
<path d="M93.4513 33.993C93.4438 33.993 93.4438 34 93.4369 34H36C36 13.1786 49.6722 14.0178 64.6694 15.7313C64.6763 15.7313 64.6763 15.7313 64.6838 15.7313C65.7484 15.8544 66.8191 15.9775 67.8904 16.0999C79.1101 17.3802 88.2432 12.4041 92.8173 8C99.0392 12.5498 100.146 29.3426 93.4513 33.993Z" fill="#D4DCE6"/>
<path d="M46 32L45.8452 32.4949C45.7678 32.7385 45.6904 32.9828 45.6055 33.2194C45.5349 33.4135 45.4719 33.6068 45.3938 33.7939C44.0774 37.3823 42.0842 40.6692 39.6404 43.6113C37.9226 45.6851 36.1973 49.0153 36.0212 54.1031C36.0069 54.3969 36 54.6915 36 55V44.5369C36 38.6094 36 33.2194 36 33.2194L38.3521 32.9325L40.6479 32.6526L43.3521 32.3225L46 32Z" fill="#D4DCE6"/>
<path d="M92.9994 33.2159L84 32L84.14 32.4921C85.3047 36.5927 87.2686 40.3151 89.7234 43.6068C91.3617 45.804 93 49.4015 93 55C92.9994 47.3305 92.9994 33.2159 92.9994 33.2159Z" fill="#D4DCE6"/>
<path d="M65 36C77.1503 36 87 34.2091 87 32C87 29.7909 77.1503 28 65 28C52.8497 28 43 29.7909 43 32C43 34.2091 52.8497 36 65 36Z" fill="#D4DCE6"/>
</svg>
