<svg width="20" height="23" viewBox="0 0 20 23" fill="none" xmlns="http://www.w3.org/2000/svg">
<path fill-rule="evenodd" clip-rule="evenodd" d="M13.4881 11.8695C13.7401 11.6876 13.7401 11.3124 13.4881 11.1306L5.72225 5.52606C5.42092 5.30859 5 5.52391 5 5.89552V8.00001H0.976331C0.437118 8.00001 0 8.43713 0 8.97634V14.0237C0 14.5629 0.437118 15 0.976331 15H5V17.1045C5 17.4761 5.42092 17.6914 5.72225 17.474L13.4881 11.8695Z" fill="#3498DB"/>
<path fill-rule="evenodd" clip-rule="evenodd" d="M2 2.60355C2 1.16565 3.16565 0 4.60355 0H17.3965C18.8344 0 20 1.16565 20 2.60355V20.3965C20 21.8344 18.8344 23 17.3964 23H4.60355C3.16565 23 2 21.8344 2 20.3965V17H4V20.0888C4 20.592 4.40798 21 4.91124 21H17.0888C17.592 21 18 20.592 18 20.0888V2.91124C18 2.40798 17.592 2 17.0888 2H4.91124C4.40798 2 4 2.40798 4 2.91124V6H2V2.60355Z" fill="#3498DB"/>
</svg>
