<svg width="21" height="22" viewBox="0 0 21 22" fill="none" xmlns="http://www.w3.org/2000/svg">
<path d="M20.9701 11.1501C21.0101 11.0543 21.0101 10.9462 20.9701 10.85C20.9499 10.8017 20.9205 10.7581 20.8841 10.7215L16.1297 6.00803C15.9747 5.85442 15.7243 5.85442 15.5694 6.00803C15.4144 6.16163 15.4144 6.40992 15.5694 6.56353L19.6478 10.6072H7.52856C7.30984 10.6072 7.13232 10.7828 7.13232 11.0001C7.13232 11.2173 7.30984 11.3929 7.52856 11.3929H19.6478L15.5694 15.4366C15.4144 15.5902 15.4144 15.8385 15.5694 15.9921C15.6466 16.0687 15.7481 16.1072 15.8495 16.1072C15.9509 16.1072 16.0524 16.0687 16.1297 15.9921L20.8841 11.2782C20.9205 11.2421 20.9499 11.1985 20.9701 11.1501Z" fill="#3498DB"/>
<path d="M13.8683 12.9643C13.6495 12.9643 13.472 13.1399 13.472 13.3571V21.2143H0.792471V0.785714H13.472V8.64286C13.472 8.86011 13.6495 9.03571 13.8683 9.03571C14.087 9.03571 14.2645 8.86011 14.2645 8.64286V0.392857C14.2645 0.175607 14.087 0 13.8683 0H0.396236C0.177514 0 0 0.175607 0 0.392857V21.6071C0 21.8244 0.177514 22 0.396236 22H13.8683C14.087 22 14.2645 21.8244 14.2645 21.6071V13.3571C14.2645 13.1399 14.087 12.9643 13.8683 12.9643Z" fill="#3498DB"/>
</svg>
