<svg width="39" height="34" viewBox="0 0 39 34" fill="none" xmlns="http://www.w3.org/2000/svg">
<path d="M33.7947 10.089H21.1237V8.20857H26.3927C27.292 8.20857 28.0163 7.57714 28.0163 6.79306V1.41551C28.0163 0.631429 27.292 0 26.3927 0H12.6073C11.708 0 10.9837 0.631429 10.9837 1.41551V6.79306C10.9837 7.57714 11.708 8.20857 12.6073 8.20857H17.8763V10.089H5.20531C2.33204 10.089 0 12.122 0 14.6269V29.462C0 31.9669 2.33204 34 5.20531 34H33.7947C36.668 34 39 31.9669 39 29.462V14.6269C39 12.122 36.668 10.089 33.7947 10.089ZM14.231 2.83102H24.769V5.37755H14.231V2.83102ZM35.7527 29.462C35.7527 30.3988 34.8771 31.169 33.7947 31.169H5.20531C4.13082 31.169 3.24735 30.4057 3.24735 29.462V14.6269C3.24735 13.6902 4.12286 12.92 5.20531 12.92H33.7947C34.8692 12.92 35.7527 13.6833 35.7527 14.6269V29.462Z" fill="white"/>
<path d="M19 14C14.5914 14 11 17.5914 11 22C11 26.4086 14.5914 30 19 30C23.4158 30 27 26.4086 27 22C27 17.5842 23.4158 14 19 14ZM19 27.0753C16.2043 27.0753 13.9247 24.7957 13.9247 22C13.9247 19.2043 16.2043 16.9247 19 16.9247C21.7957 16.9247 24.0753 19.2043 24.0753 22C24.0753 24.7957 21.7957 27.0753 19 27.0753Z" fill="white"/>
</svg>
