<svg width="24" height="24" viewBox="0 0 25 24" fill="none" xmlns="http://www.w3.org/2000/svg">
<path fill-rule="evenodd" clip-rule="evenodd" d="M12.9391 12V5.999H23.3221C21.2461 2.418 17.3791 0 12.9391 0C8.4971 0 4.6281 2.421 2.5531 6.008L7.7441 14.999L12.9391 12Z" fill="#DB4437"/>
<path fill-rule="evenodd" clip-rule="evenodd" d="M12.9391 5.99902V12L18.1361 14.999L12.9391 23.999C19.5671 23.999 24.9401 18.627 24.9401 12C24.9401 9.81202 24.3441 7.76702 23.3221 5.99902H12.9391Z" fill="#FFCD40"/>
<path fill-rule="evenodd" clip-rule="evenodd" d="M12.9391 12.0001L7.74406 14.9991L2.55306 6.00806C1.53306 7.77406 0.940063 9.81506 0.940063 12.0001C0.940063 18.6271 6.31206 23.9991 12.9391 23.9991L18.1361 14.9991L12.9391 12.0001Z" fill="#0F9D58"/>
<path fill-rule="evenodd" clip-rule="evenodd" d="M12.9346 23.9918L18.1246 15.0024L15.7257 13.6174L12.9346 23.9918Z" fill="url(#paint0_radial)"/>
<path fill-rule="evenodd" clip-rule="evenodd" d="M23.3201 6L12.9401 6V8.77002L23.3201 6Z" fill="url(#paint1_radial)"/>
<path fill-rule="evenodd" clip-rule="evenodd" d="M12.9391 0C12.9081 0 12.8771 0 12.8471 0C12.8371 0 12.8271 0 12.8171 0.001C12.7941 0.001 12.7711 0.001 12.7471 0.001C12.7391 0.002 12.7311 0.002 12.7231 0.002C12.6591 0.003 12.5951 0.005 12.5311 0.007C12.5261 0.007 12.5211 0.007 12.5161 0.007C12.4861 0.008 12.4561 0.01 12.4271 0.011C12.4241 0.011 12.4211 0.011 12.4191 0.011C8.1961 0.192 4.5461 2.562 2.5531 6.008L2.5701 6.037L2.9101 6.378C4.8831 2.873 8.6391 0.5 12.9391 0.5C17.0801 0.5 20.7151 2.698 22.7401 5.989H23.3161C21.3201 2.553 17.6751 0.192 13.4591 0.011C13.4571 0.011 13.4541 0.011 13.4521 0.011C13.4221 0.01 13.3931 0.008 13.3631 0.007C13.3581 0.007 13.3521 0.007 13.3481 0.007C13.2841 0.005 13.2191 0.003 13.1551 0.002C13.1471 0.002 13.1401 0.002 13.1321 0.001C13.1091 0.001 13.0851 0.001 13.0611 0.001C13.0521 0 13.0421 0 13.0321 0C13.0011 0 12.9701 0 12.9391 0Z" fill="#D24135"/>
<path fill-rule="evenodd" clip-rule="evenodd" d="M23.322 5.99902H23.287L22.822 6.12402C23.849 7.84502 24.44 9.85502 24.44 12C24.44 18.239 19.445 23.333 13.243 23.495L12.953 23.999C19.575 23.992 24.94 18.623 24.94 12C24.94 11.969 24.94 11.938 24.939 11.907C24.939 11.9 24.939 11.891 24.939 11.883C24.939 11.857 24.938 11.832 24.938 11.807C24.938 11.801 24.938 11.795 24.938 11.795C24.901 9.68002 24.311 7.70902 23.322 5.99902Z" fill="#F5C53D"/>
<path fill-rule="evenodd" clip-rule="evenodd" d="M2.54706 6.01904C1.56306 7.72604 0.978063 9.68904 0.942063 11.791C0.942063 11.796 0.942063 11.8 0.942063 11.8C0.941063 11.831 0.941063 11.857 0.941063 11.883C0.941063 11.891 0.941063 11.9 0.941063 11.907C0.940063 11.938 0.940063 11.969 0.940063 12C0.940063 18.627 6.31206 23.999 12.9391 23.999L12.9631 23.958L13.0861 23.498C13.0371 23.499 12.9891 23.5 12.9391 23.5C6.59906 23.5 1.44006 18.341 1.44006 12C1.44006 10.016 1.94506 8.14704 2.83406 6.51504L2.54706 6.01904Z" fill="#0E9755"/>
<path fill-rule="evenodd" clip-rule="evenodd" d="M18.9401 12C18.9401 15.314 16.2541 18 12.9401 18C9.62606 18 6.94006 15.314 6.94006 12C6.94006 8.687 9.62606 6 12.9401 6C16.2541 6 18.9401 8.687 18.9401 12Z" fill="#F1F1F1"/>
<path fill-rule="evenodd" clip-rule="evenodd" d="M17.3399 12.0001C17.3399 14.4301 15.3699 16.4001 12.9399 16.4001C10.5099 16.4001 8.53992 14.4301 8.53992 12.0001C8.53992 9.5701 10.5099 7.6001 12.9399 7.6001C15.3699 7.6001 17.3399 9.5701 17.3399 12.0001Z" fill="#4285F4"/>
<path fill-rule="evenodd" clip-rule="evenodd" d="M2.55646 5.99405L7.74646 14.9834L10.1454 13.5984L2.55646 5.99405Z" fill="url(#paint2_radial)"/>
<defs>
<radialGradient id="paint0_radial" cx="0" cy="0" r="1" gradientUnits="userSpaceOnUse" gradientTransform="translate(12.9834 12.0342) rotate(49.6348) scale(11.9448 40.0661)">
<stop stop-opacity="0.16"/>
<stop offset="1" stop-opacity="0.02"/>
</radialGradient>
<radialGradient id="paint1_radial" cx="0" cy="0" r="1" gradientUnits="userSpaceOnUse" gradientTransform="translate(13.1904 6.08474) scale(10.7496 2.93172)">
<stop stop-opacity="0.16"/>
<stop offset="1" stop-opacity="0.02"/>
</radialGradient>
<radialGradient id="paint2_radial" cx="0" cy="0" r="1" gradientUnits="userSpaceOnUse" gradientTransform="translate(2.55646 5.99405) rotate(60) scale(10.38 2.77002)">
<stop stop-opacity="0.16"/>
<stop offset="1" stop-opacity="0.02"/>
</radialGradient>
</defs>
</svg>
