<svg width="25" height="21" viewBox="0 0 25 21" fill="none" xmlns="http://www.w3.org/2000/svg">
<path fill-rule="evenodd" clip-rule="evenodd" d="M4.93994 21V14H24.9409L20.9399 21H4.93994Z" fill="#4285F4"/>
<path fill-rule="evenodd" clip-rule="evenodd" d="M12.9399 21L8.93994 14.0073L4.93994 21H12.9399Z" fill="url(#paint0_linear)"/>
<path fill-rule="evenodd" clip-rule="evenodd" d="M8.93992 0L14.0369 5.097L4.93992 21L0.940918 14L8.93992 0Z" fill="#0F9D58"/>
<path fill-rule="evenodd" clip-rule="evenodd" d="M16.9399 0H8.93994L16.9399 14H24.9409L16.9399 0Z" fill="#FFCD40"/>
<path fill-rule="evenodd" clip-rule="evenodd" d="M8.93994 0L10.9639 10.502L12.9399 7.024L8.93994 0Z" fill="url(#paint1_radial)"/>
<path fill-rule="evenodd" clip-rule="evenodd" d="M13.2253 7L17.0954 13.7792L16.3925 14.9965L9.51693 15.0005L8.80066 13.7599L12.6548 7H13.2253ZM8.94411 13.9926L12.9441 7L16.9399 13.9926H8.94411Z" fill="black" fill-opacity="0.08"/>
<defs>
<linearGradient id="paint0_linear" x1="4.96585" y1="20.0975" x2="10.3851" y2="24.2351" gradientUnits="userSpaceOnUse">
<stop stop-opacity="0.16"/>
<stop offset="1" stop-opacity="0.02"/>
</linearGradient>
<radialGradient id="paint1_radial" cx="0" cy="0" r="1" gradientUnits="userSpaceOnUse" gradientTransform="translate(8.93994) rotate(60.4179) scale(8.10258 7.51851)">
<stop stop-opacity="0.08"/>
<stop offset="0.335083" stop-opacity="0.04"/>
<stop offset="1" stop-opacity="0"/>
</radialGradient>
</defs>
</svg>
