<svg width="23" height="14" viewBox="0 0 23 14" fill="none" xmlns="http://www.w3.org/2000/svg">
<path fill-rule="evenodd" clip-rule="evenodd" d="M7.6504 7.69992C5.31757 7.69992 0.649902 8.92548 0.649902 11.3755V13.9999H14.6499V11.3755C14.6499 8.92548 9.98423 7.69992 7.6504 7.69992ZM15.5839 7.69992C15.3025 7.69992 14.9873 7.71883 14.6499 7.75663C15.7695 8.63668 16.5498 9.81813 16.5498 11.3755V13.9999H22.3499V11.3755C22.3499 8.92548 17.8395 7.69992 15.5839 7.69992ZM7.65516 0C5.72026 0 4.1499 1.56891 4.1499 3.50058C4.1499 5.43226 5.72026 7 7.65516 7C9.59123 7 11.1499 5.43226 11.1499 3.50058C11.1499 1.56891 9.59123 0 7.65516 0ZM15.7063 0C13.9624 0 12.5499 1.41201 12.5499 3.15052C12.5499 4.88904 13.9624 6.3 15.7063 6.3C17.448 6.3 18.8499 4.88904 18.8499 3.15052C18.8499 1.41201 17.448 0 15.7063 0Z" fill="white"/>
</svg>
