<svg width="25" height="18" viewBox="0 0 25 18" fill="none" xmlns="http://www.w3.org/2000/svg">
<mask id="mask0" mask-type="alpha" maskUnits="userSpaceOnUse" x="0" y="0" width="25" height="18">
<path fill-rule="evenodd" clip-rule="evenodd" d="M2.38177 18C1.5672 18 0.940063 17.2023 0.940063 16.5V1.499C0.940063 0.630554 1.79602 0 2.28925 0H23.4401C24.2691 0 24.9401 0.672 24.9401 1.499V16.5C24.9401 17.329 24.2691 18 23.4401 18C23.4401 18 3.61438 18 2.38177 18Z" fill="white"/>
</mask>
<g mask="url(#mask0)">
<path fill-rule="evenodd" clip-rule="evenodd" d="M1.94006 0H22.9391V18H1.94006V0Z" fill="#E1E1E1"/>
<path fill-rule="evenodd" clip-rule="evenodd" d="M2.43906 0C1.61106 0 0.940063 0.672 0.940063 1.499V16.5C0.940063 17.329 1.61106 18 2.43906 18H3.93906V1.499L2.43906 0Z" fill="#D23F31"/>
<path fill-rule="evenodd" clip-rule="evenodd" d="M24.94 1.49902L3.93896 18H23.44L24.94 1.49902Z" fill="#EEEEEE"/>
<path fill-rule="evenodd" clip-rule="evenodd" d="M21.939 1.499L23.44 0C24.269 0 24.94 0.672 24.94 1.499V16.5C24.94 17.329 24.269 18 23.44 18H21.939V1.499Z" fill="#B93221"/>
<path fill-rule="evenodd" clip-rule="evenodd" d="M1.33997 2.5H24.94V18H16.94L1.33997 2.5Z" fill="url(#paint0_radial)"/>
<path fill-rule="evenodd" clip-rule="evenodd" d="M12.939 10.929L23.44 0H2.43896L12.939 10.929Z" fill="#EEEEEE"/>
<path fill-rule="evenodd" clip-rule="evenodd" d="M24.3101 2.722C24.6911 2.45 24.9401 2.004 24.9401 1.499C24.9401 0.672 24.2691 0 23.4401 0H22.9401L12.9391 7.336L2.93906 0H2.43906C1.61106 0 0.940063 0.672 0.940063 1.499C0.940063 2.004 1.18806 2.45 1.56906 2.722L12.9391 10.929L24.3101 2.722Z" fill="#DB4437"/>
<path fill-rule="evenodd" clip-rule="evenodd" d="M0.940063 1.49902V16.5C0.940063 17.329 1.61106 18 2.43906 18H3.93906H2.43906C1.88906 18 0.940063 17.052 0.940063 16.5V1.49902Z" fill="#C23A2D"/>
</g>
<defs>
<radialGradient id="paint0_radial" cx="0" cy="0" r="1" gradientUnits="userSpaceOnUse" gradientTransform="translate(1.33997 3.47237) rotate(31.249) scale(27.19 24.193)">
<stop stop-opacity="0.16"/>
<stop offset="0.3" stop-opacity="0.16"/>
<stop offset="0.5" stop-opacity="0.09"/>
<stop offset="1" stop-opacity="0.02"/>
</radialGradient>
</defs>
</svg>
