<svg width="26" height="18" viewBox="0 0 26 18" fill="none" xmlns="http://www.w3.org/2000/svg">
<path fill-rule="evenodd" clip-rule="evenodd" d="M0.939941 10.001C0.939941 12.071 1.18994 14.117 1.18994 14.117C1.19094 14.117 1.41394 15.88 2.13394 16.657C3.04594 17.676 4.06694 17.717 4.53794 17.75C7.89694 17.987 12.9399 18 12.9399 18C12.9399 18 17.9819 17.987 21.3409 17.75C21.8129 17.717 22.8329 17.676 23.7459 16.657C24.4659 15.88 24.6899 14.117 24.6899 14.117C24.6899 14.117 24.9399 12.071 24.9399 10.001V8C24.9399 5.929 24.6899 3.884 24.6899 3.884C24.6899 3.884 24.4659 2.119 23.7459 1.343C22.8329 0.323 21.8129 0.282 21.3409 0.25C17.9819 0.012 12.9399 0 12.9399 0C12.9399 0 7.89694 0.012 4.53794 0.25C4.06694 0.282 3.04594 0.323 2.13394 1.343C1.41394 2.119 1.18994 3.884 1.18994 3.884C1.19094 3.884 0.939941 5.929 0.939941 8V10.001Z" fill="#D50000"/>
<path fill-rule="evenodd" clip-rule="evenodd" d="M12.9399 0C12.9399 0 7.89694 0.012 4.53894 0.25C4.06694 0.283 3.04694 0.324 2.13394 1.343C1.41394 2.119 1.19094 3.883 1.19094 3.883C1.19094 3.884 0.939941 5.929 0.939941 7.999C0.939941 5.985 1.43394 3.964 1.43594 3.946C1.49294 3.499 1.87394 2.223 2.38094 1.676C3.13094 0.838 4.02194 0.782 4.51094 0.748C7.79694 0.516 12.8379 0.501 12.9399 0.499C13.0419 0.501 18.0209 0.516 21.3509 0.752C21.7959 0.782 22.6239 0.838 23.3789 1.682C23.8779 2.22 23.8869 3.499 23.9439 3.944C23.9459 3.964 23.9399 5.985 23.9399 7.999V10C23.9399 12.015 23.9459 14.035 23.9439 14.054C23.8879 14.5 23.7549 15.776 23.2489 16.324C22.4979 17.161 21.7329 17.218 21.2439 17.251C17.9409 17.484 12.9579 17.5 12.9099 17.5C12.8589 17.5 7.85994 17.484 4.51294 17.247C4.06894 17.218 3.24794 17.161 2.49194 16.317C1.99394 15.779 1.48894 14.5 1.43194 14.056C1.42894 14.035 0.939941 12.017 0.939941 10V7.999V10C0.939941 12.071 1.19094 14.116 1.19094 14.116C1.19094 14.116 1.41394 15.88 2.13394 16.657C3.04694 17.677 4.06694 17.716 4.53894 17.749C7.89694 17.987 12.9399 18 12.9399 18C12.9399 18 17.9839 17.987 21.3409 17.749C21.8129 17.716 22.8329 17.677 23.7459 16.657C24.4649 15.88 24.6899 14.116 24.6899 14.116C24.6899 14.116 24.9399 12.071 24.9399 10V7.999C24.9399 5.929 24.6899 3.883 24.6899 3.883C24.6899 3.884 24.4649 2.119 23.7459 1.343C22.8329 0.324 21.8129 0.283 21.3409 0.25C17.9839 0.012 12.9399 0 12.9399 0Z" fill="#C40000"/>
<path opacity="0.5" fill-rule="evenodd" clip-rule="evenodd" d="M15.9498 17.9687L25.91 17.9754L16.9275 8.99292L10.9651 12.984L15.9498 17.9687Z" fill="url(#paint0_linear)"/>
<path fill-rule="evenodd" clip-rule="evenodd" d="M10.9399 13L16.9399 9L10.9399 5V13Z" fill="#EEEEEE"/>
<defs>
<linearGradient id="paint0_linear" x1="10.3289" y1="10.8669" x2="11.6203" y2="17.4261" gradientUnits="userSpaceOnUse">
<stop stop-opacity="0.16"/>
<stop offset="0.327577" stop-opacity="0.09"/>
<stop offset="1" stop-opacity="0.02"/>
</linearGradient>
</defs>
</svg>
