<svg width="16" height="17" viewBox="0 0 16 17" fill="none" xmlns="http://www.w3.org/2000/svg" class="svgName">
<path d="M8 10.0986C5.33 10.0986 0 11.4417 0 14.1381V16.1578H16V14.1381C16 11.4417 10.67 10.0986 8 10.0986ZM8 8.0789C9.06087 8.0789 10.0783 7.65332 10.8284 6.89578C11.5786 6.13823 12 5.11078 12 4.03945C12 2.96812 11.5786 1.94067 10.8284 1.18313C10.0783 0.425584 9.06087 0 8 0C6.93913 0 5.92172 0.425584 5.17157 1.18313C4.42143 1.94067 4 2.96812 4 4.03945C4 5.11078 4.42143 6.13823 5.17157 6.89578C5.92172 7.65332 6.93913 8.0789 8 8.0789Z" fill="#BABABA"/>
</svg>
