<svg width="18" height="19" viewBox="0 0 18 19" fill="none" xmlns="http://www.w3.org/2000/svg">
<path d="M18 14.542V18.1776H14.4V15.4509H11.7V12.7243H9L6.966 10.6702C6.471 10.8247 5.949 10.9065 5.4 10.9065C3.96783 10.9065 2.59432 10.332 1.58162 9.30931C0.568927 8.28662 0 6.89956 0 5.45327C0 4.00697 0.568927 2.61991 1.58162 1.59722C2.59432 0.574539 3.96783 0 5.4 0C6.83217 0 8.20568 0.574539 9.21838 1.59722C10.2311 2.61991 10.8 4.00697 10.8 5.45327C10.8 6.00768 10.719 6.53483 10.566 7.03471L18 14.542ZM4.5 2.72663C4.02261 2.72663 3.56477 2.91815 3.22721 3.25904C2.88964 3.59994 2.7 4.06229 2.7 4.54439C2.7 5.02649 2.88964 5.48884 3.22721 5.82973C3.56477 6.17063 4.02261 6.36214 4.5 6.36214C4.97739 6.36214 5.43523 6.17063 5.77279 5.82973C6.11036 5.48884 6.3 5.02649 6.3 4.54439C6.3 4.06229 6.11036 3.59994 5.77279 3.25904C5.43523 2.91815 4.97739 2.72663 4.5 2.72663Z" fill="#2C86C2"/>
</svg>
