<svg width="30" height="30" viewBox="0 0 30 30" fill="none" xmlns="http://www.w3.org/2000/svg">
<path d="M14.9996 0C6.71564 0 0 6.7161 0 14.9997C0 23.2833 6.71564 30 14.9996 30C23.2836 30 30 23.2837 30 14.9997C30 6.7157 23.2836 0 14.9996 0ZM22.1302 10.7945L20.7055 12.2192L17.8054 9.3193L16.7052 10.4195L19.6053 13.3196L12.4921 20.4322L9.59216 17.5326L8.49196 18.6328L11.3919 21.5327L10.6831 22.2415L10.6696 22.228C10.591 22.3574 10.4632 22.4518 10.3114 22.4855L7.60705 23.0885C7.56655 23.0976 7.52535 23.102 7.48465 23.102C7.33705 23.102 7.19365 23.0439 7.08735 22.9373C6.95095 22.8014 6.89415 22.6051 6.93615 22.417L7.53885 19.7135C7.57285 19.5618 7.66745 19.4337 7.79665 19.3553L7.78295 19.3416L19.23 7.8941C19.3978 7.7266 19.6704 7.7266 19.8382 7.8946L22.1304 10.1863C22.2982 10.3541 22.2983 10.6267 22.1302 10.7945Z" fill="#3498DB"/>
</svg>
