<svg width="18" height="17" viewBox="0 0 18 17" fill="none" xmlns="http://www.w3.org/2000/svg">
<path opacity="0.54" fill-rule="evenodd" clip-rule="evenodd" d="M12.8667 10.6912H12.0495L11.7655 10.4249C12.7689 9.31982 13.3792 7.8872 13.3792 6.31753C13.3792 2.82831 10.3843 0 6.68966 0C2.99498 0 0.00012207 2.82831 0.00012207 6.31753C0.00012207 9.80676 2.99498 12.6351 6.68966 12.6351C8.35175 12.6351 9.8677 12.0597 11.0379 11.113L11.3219 11.3793V12.1491L16.4656 17L18.0001 15.5509L12.8667 10.6912ZM6.50012 11C4.01412 11 2.00012 8.986 2.00012 6.5C2.00012 4.015 4.01412 2 6.50012 2C8.98512 2 11.0001 4.015 11.0001 6.5C11.0001 8.986 8.98512 11 6.50012 11Z" fill="black"/>
</svg>
