<svg width="17" height="17" viewBox="0 0 17 17" fill="none" xmlns="http://www.w3.org/2000/svg">
<g opacity="0.5" filter="url(#filter0_d)">
<path fill-rule="evenodd" clip-rule="evenodd" d="M12.9399 5V1H16.9399V5H12.9399ZM12.9399 7V11H16.9399V7H12.9399ZM0.939941 17V13H4.93994V17H0.939941ZM6.93994 13V17H10.9399V13H6.93994ZM12.9399 13V17H16.9399V13H12.9399ZM6.93994 11V7H10.9399V11H6.93994ZM0.939941 7V11H4.93994V7H0.939941ZM6.93994 1V5H10.9399V1H6.93994ZM0.939941 5V1H4.93994V5H0.939941Z" fill="url(#paint0_linear)"/>
</g>
<defs>
<filter id="filter0_d" x="0.939941" y="0.5" width="16" height="16.5" filterUnits="userSpaceOnUse" color-interpolation-filters="sRGB">
<feFlood flood-opacity="0" result="BackgroundImageFix"/>
<feColorMatrix in="SourceAlpha" type="matrix" values="0 0 0 0 0 0 0 0 0 0 0 0 0 0 0 0 0 0 127 0"/>
<feOffset dy="-0.5"/>
<feColorMatrix type="matrix" values="0 0 0 0 0 0 0 0 0 0 0 0 0 0 0 0 0 0 0.2 0"/>
<feBlend mode="normal" in2="BackgroundImageFix" result="effect1_dropShadow"/>
<feBlend mode="normal" in="SourceGraphic" in2="effect1_dropShadow" result="shape"/>
</filter>
<linearGradient id="paint0_linear" x1="0.939941" y1="1" x2="0.939941" y2="17" gradientUnits="userSpaceOnUse">
<stop stop-color="white" stop-opacity="0.9"/>
<stop offset="0.3" stop-color="white" stop-opacity="0.875"/>
<stop offset="1" stop-color="white" stop-opacity="0.85"/>
</linearGradient>
</defs>
</svg>
