<svg width="25" height="24" viewBox="0 0 25 24" fill="none" xmlns="http://www.w3.org/2000/svg">
<mask id="mask0" mask-type="alpha" maskUnits="userSpaceOnUse" x="0" y="0" width="25" height="24">
<path fill-rule="evenodd" clip-rule="evenodd" d="M24.9401 12C24.9401 18.627 19.5671 23.999 12.9401 23.999C6.31309 23.999 0.939087 18.627 0.939087 12C0.939087 5.373 6.31309 0 12.9401 0C19.5671 0 24.9401 5.373 24.9401 12Z" fill="white"/>
</mask>
<g mask="url(#mask0)">
<g filter="url(#filter0_ii)">
<path fill-rule="evenodd" clip-rule="evenodd" d="M24.9401 12C24.9401 18.627 19.5671 23.999 12.9401 23.999C6.31309 23.999 0.939087 18.627 0.939087 12C0.939087 5.373 6.31309 0 12.9401 0C19.5671 0 24.9401 5.373 24.9401 12Z" fill="#3B78E7"/>
<path fill-rule="evenodd" clip-rule="evenodd" d="M24.9401 12C24.9401 18.627 19.5671 23.999 12.9401 23.999C6.31309 23.999 0.939087 18.627 0.939087 12C0.939087 5.373 6.31309 0 12.9401 0C19.5671 0 24.9401 5.373 24.9401 12Z" fill="url(#paint0_radial)" fill-opacity="0.08"/>
</g>
<path fill-rule="evenodd" clip-rule="evenodd" d="M12.465 11.896C12.465 12.522 12.846 12.935 13.152 13.282C12.242 13.342 10.54 13.555 9.28597 14.322C8.09097 15.034 7.71497 16.083 7.71497 16.811C7.71497 17.3932 7.93035 17.9592 8.36575 18.4338C9.05145 19.1813 13.8973 24 13.8973 24H25.29V12L17.29 4H13.132C10.225 4 8.73997 5.798 8.73997 7.804C8.73997 9.356 9.93697 11 12.065 11C12.236 11 12.615 11 12.615 11C12.538 12 12.465 11.614 12.465 11.896Z" fill="url(#paint1_linear)"/>
<g filter="url(#filter1_ddi)">
<path fill-rule="evenodd" clip-rule="evenodd" d="M12.465 11.896C12.465 12.522 12.846 12.935 13.152 13.282C12.242 13.342 10.54 13.555 9.28597 14.322C8.09097 15.034 7.71497 16.083 7.71497 16.811C7.71497 18.31 9.14297 19.702 12.078 19.702C15.561 19.702 17.415 17.798 17.415 15.897C17.415 14.495 16.592 13.812 15.703 13.063L14.974 12.5C14.752 12.317 14.365 12.076 14.365 11.631C14.365 11.184 14.675 10.843 14.936 10.64C15.807 9.963 16.639 9.168 16.639 7.673C16.639 6.258 15.791 5.999 15.289 5H16.44L17.29 4H13.132C10.225 4 8.73997 5.798 8.73997 7.804C8.73997 9.356 9.93697 11 12.065 11C12.236 11 12.615 11 12.615 11C12.538 12 12.465 11.614 12.465 11.896ZM13.006 10.756C11.32 10.756 10.403 8.706 10.403 7.146C10.403 5.666 11.299 4.975 12.238 4.975C14.044 4.975 14.978 7.306 14.978 8.703C14.978 10.426 13.564 10.756 13.006 10.756ZM13.074 18.85C10.909 18.85 9.46497 17.813 9.46497 16.375C9.46497 14.941 10.804 14.456 11.25 14.292C12.1 14.008 13.193 13.97 13.379 13.97C13.578 13.97 13.679 13.97 13.84 13.987C15.38 15.089 16.027 15.63 16.027 16.663C16.027 17.816 15.012 18.85 13.074 18.85Z" fill="#F1F1F1"/>
</g>
</g>
<defs>
<filter id="filter0_ii" x="0.939087" y="0" width="24.001" height="23.999" filterUnits="userSpaceOnUse" color-interpolation-filters="sRGB">
<feFlood flood-opacity="0" result="BackgroundImageFix"/>
<feBlend mode="normal" in="SourceGraphic" in2="BackgroundImageFix" result="shape"/>
<feColorMatrix in="SourceAlpha" type="matrix" values="0 0 0 0 0 0 0 0 0 0 0 0 0 0 0 0 0 0 127 0" result="hardAlpha"/>
<feOffset dy="-0.125"/>
<feComposite in2="hardAlpha" operator="arithmetic" k2="-1" k3="1"/>
<feColorMatrix type="matrix" values="0 0 0 0 0.14902 0 0 0 0 0.196078 0 0 0 0 0.219608 0 0 0 0.16 0"/>
<feBlend mode="normal" in2="shape" result="effect1_innerShadow"/>
<feColorMatrix in="SourceAlpha" type="matrix" values="0 0 0 0 0 0 0 0 0 0 0 0 0 0 0 0 0 0 127 0" result="hardAlpha"/>
<feOffset dy="0.125"/>
<feComposite in2="hardAlpha" operator="arithmetic" k2="-1" k3="1"/>
<feColorMatrix type="matrix" values="0 0 0 0 1 0 0 0 0 1 0 0 0 0 1 0 0 0 0.24 0"/>
<feBlend mode="normal" in2="effect1_innerShadow" result="effect2_innerShadow"/>
</filter>
<filter id="filter1_ddi" x="7.71497" y="4" width="13.7" height="19.702" filterUnits="userSpaceOnUse" color-interpolation-filters="sRGB">
<feFlood flood-opacity="0" result="BackgroundImageFix"/>
<feColorMatrix in="SourceAlpha" type="matrix" values="0 0 0 0 0 0 0 0 0 0 0 0 0 0 0 0 0 0 127 0"/>
<feOffset dy="0.2"/>
<feColorMatrix type="matrix" values="0 0 0 0 0.14902 0 0 0 0 0.196078 0 0 0 0 0.219608 0 0 0 0.24 0"/>
<feBlend mode="normal" in2="BackgroundImageFix" result="effect1_dropShadow"/>
<feColorMatrix in="SourceAlpha" type="matrix" values="0 0 0 0 0 0 0 0 0 0 0 0 0 0 0 0 0 0 127 0"/>
<feOffset dx="2" dy="2"/>
<feGaussianBlur stdDeviation="1"/>
<feColorMatrix type="matrix" values="0 0 0 0 0 0 0 0 0 0 0 0 0 0 0 0 0 0 0.08 0"/>
<feBlend mode="normal" in2="effect1_dropShadow" result="effect2_dropShadow"/>
<feBlend mode="normal" in="SourceGraphic" in2="effect2_dropShadow" result="shape"/>
<feColorMatrix in="SourceAlpha" type="matrix" values="0 0 0 0 0 0 0 0 0 0 0 0 0 0 0 0 0 0 127 0" result="hardAlpha"/>
<feOffset dy="0.2"/>
<feComposite in2="hardAlpha" operator="arithmetic" k2="-1" k3="1"/>
<feColorMatrix type="matrix" values="0 0 0 0 1 0 0 0 0 1 0 0 0 0 1 0 0 0 0.64 0"/>
<feBlend mode="normal" in2="shape" result="effect3_innerShadow"/>
</filter>
<radialGradient id="paint0_radial" cx="0" cy="0" r="1" gradientUnits="userSpaceOnUse" gradientTransform="translate(4.5123 3.50701) rotate(45.0459) scale(23.952)">
<stop offset="0.00434471" stop-color="white"/>
<stop offset="0.984076" stop-color="white" stop-opacity="0"/>
</radialGradient>
<linearGradient id="paint1_linear" x1="2.36916" y1="14.9083" x2="17.1011" y2="26.1536" gradientUnits="userSpaceOnUse">
<stop stop-opacity="0.16"/>
<stop offset="0.151341" stop-opacity="0.16"/>
<stop offset="0.322098" stop-opacity="0.08"/>
<stop offset="1" stop-opacity="0"/>
</linearGradient>
</defs>
</svg>
